<svg width="148" height="148" viewBox="0 0 148 148" fill="none" xmlns="http://www.w3.org/2000/svg">
<path d="M49.07 80.66V98.35C62.1536 98.3341 74.6967 93.1297 83.9482 83.8782C93.1997 74.6267 98.4041 62.0836 98.42 49H80.78C80.7668 57.4013 77.42 65.4541 71.4747 71.39C65.5294 77.326 57.4714 80.66 49.07 80.66Z" fill="white"/>
<path d="M49.07 129.41C40.8327 129.263 32.9824 125.888 27.209 120.01C21.4355 114.133 18.2007 106.224 18.2007 97.9851C18.2007 89.7464 21.4355 81.8371 27.209 75.9598C32.9824 70.0825 40.8327 66.707 49.07 66.5601V49.0101C36.0744 48.9915 23.6037 54.1362 14.4013 63.3123C5.19891 72.4885 0.0186152 84.9445 5.00717e-05 97.9401C-0.0185151 110.936 5.12617 123.406 14.3023 132.609C23.4785 141.811 35.9344 146.991 48.93 147.01H49.07V129.41Z" fill="white"/>
<path d="M49.07 129.41V146.96C62.0656 146.96 74.529 141.797 83.7182 132.608C92.9075 123.419 98.07 110.956 98.07 97.96H80.5C80.4974 106.297 77.1858 114.292 71.2927 120.188C65.3995 126.085 57.4068 129.402 49.07 129.41Z" fill="white"/>
<path d="M49.07 31.44V49C62.0656 49 74.529 43.8375 83.7182 34.6482C92.9075 25.459 98.07 12.9956 98.07 0H80.5C80.4947 8.33505 77.182 16.3273 71.2891 22.2221C65.3963 28.1168 57.4051 31.4321 49.07 31.44Z" fill="white"/>
<path d="M98.37 31.44V49C111.366 49 123.829 43.8375 133.018 34.6482C142.208 25.459 147.37 12.9956 147.37 0H129.78C129.775 8.33159 126.465 16.3209 120.576 22.215C114.688 28.1091 106.702 31.4268 98.37 31.44Z" fill="white"/>
</svg>
