<svg xmlns="http://www.w3.org/2000/svg" width="120" height="120" viewBox="0 0 120 120" fill="none">
    <rect width="120" height="120" rx="28" fill="#A4C7BA"/>
    <g transform="translate(18.5 18.5)">
        <path d="M35.1253 80.5058C42.6728 80.5058 49.3571 77.7029 56.3297 70.7303L62.0794 64.9806C68.6209 58.3677 71.6398 49.5267 71.6398 39.1039C71.6398 19.5527 60.6422 6.83044 43.8226 6.83044C36.2759 6.83044 29.5907 9.34599 22.619 16.2463L16.8684 21.9969C10.3993 28.466 7.30884 37.3793 7.30884 47.8012C7.30884 67.4961 18.2342 80.5058 35.1253 80.5058Z" fill="#0D3A29"/>
        <path d="M43.8228 9.63391C28.5841 9.63391 18.7371 21.0627 18.7371 39.1036C18.7371 57.4327 28.5841 69.0053 43.8228 69.0053C58.9892 69.0053 68.8363 57.4327 68.8363 39.1036C68.8363 21.0627 58.9892 9.63391 43.8228 9.63391ZM43.7509 55.5641C39.2224 55.5641 36.2034 49.2387 36.2034 39.1042C36.2034 29.2563 39.2224 23.0754 43.7509 23.0754C48.2079 23.0754 51.2983 29.2563 51.2983 39.1042C51.2983 49.2387 48.2079 55.5641 43.7509 55.5641Z" fill="#FFF"/>
    </g>
</svg>
