<svg
  clip-rule="evenodd"
  fill="#202320"
  fill-rule="evenodd"
  height="32"
  viewBox="0 0 15 15"
  width="32"
  xmlns="http://www.w3.org/2000/svg"
>
  <path d="M6.62026 14.9031C8.14697 14.9031 9.49908 14.3361 10.9095 12.9257L12.0726 11.7626C13.3958 10.425 14.0064 8.63663 14.0064 6.5283C14.0064 2.57348 11.7818 0 8.37955 0C6.85301 0 5.50073 0.508847 4.09048 1.90465L2.92725 3.06787C1.61867 4.37646 0.99353 6.17944 0.99353 8.28759C0.99353 12.2715 3.20352 14.9031 6.62026 14.9031ZM8.37905 0.5672C5.29655 0.5672 3.30469 2.87903 3.30469 6.52835C3.30469 10.236 5.29655 12.5769 8.37905 12.5769C11.4469 12.5769 13.4388 10.236 13.4388 6.52835C13.4388 2.87903 11.4469 0.5672 8.37905 0.5672ZM8.3645 9.85799C7.44847 9.85799 6.83779 8.57848 6.83779 6.52847C6.83779 4.53643 7.44847 3.28616 8.3645 3.28616C9.26607 3.28616 9.8912 4.53643 9.8912 6.52847C9.8912 8.57848 9.26607 9.85799 8.3645 9.85799Z" />
</svg>
